<svg width="304" height="217" viewBox="0 0 304 217" fill="none" xmlns="http://www.w3.org/2000/svg">
<path fill-rule="evenodd" clip-rule="evenodd" d="M302.519 32.1569L268.13 3.24994L173.279 1.41211L110.014 53.8993L99.4541 47.5448L140.727 18.7313L49.2408 18.9805C38.4007 19.4166 29.0558 25.0859 22.7636 31.4716L0.678467 56.7028H35.7842C47.7456 69.4742 55.5642 82.0275 56.7168 90.3756L59.6448 111.308L211.624 216.22L202.746 181.738L223.368 191.456L206.921 159.403L215.331 160.494L183.309 124.983L173.279 121.556L188.044 108.879H200.441L220.907 90.5625L217.574 87.541L235.485 87.7279L258.878 67.0134L252.929 62.0294L269.313 61.5933L302.519 32.1569Z" fill="white"/>
<path fill-rule="evenodd" clip-rule="evenodd" d="M188.418 143.392L161.411 134.234C161.411 134.203 161.442 134.172 161.442 134.11L186.985 141.461L185.178 139.125L161.971 130.995C161.971 130.964 161.971 130.933 162.003 130.901L183.994 137.599L181.907 134.889L162.532 127.755C162.532 127.724 162.532 127.693 162.563 127.662L181.035 133.705L179.291 131.431L132.037 115.295L140.385 130.901L191.252 146.975L188.418 143.392Z" fill="#009FDF"/>
<path fill-rule="evenodd" clip-rule="evenodd" d="M167.454 171.645L167.298 171.209L195.27 189.556L194.305 185.725L164.713 164.45L164.526 163.951L193.588 182.953L192.685 179.277L161.909 157.098L161.753 156.693L192.093 176.972L191.128 173.109L147.954 145.199L162.065 171.614L196.766 195.568L195.831 191.83L167.454 171.645Z" fill="#009FDF"/>
<path fill-rule="evenodd" clip-rule="evenodd" d="M204.865 92.5252L206.266 91.3726L204.865 90.0955L177.11 89.3791L176.923 89.1922L203.276 88.5069L200.472 85.8903L172.095 85.1427L172.002 85.0493L198.946 84.3951L196.454 81.7474L139.014 80.9375H138.89L129.077 89.3168L143.718 89.0053L152.19 95.0795L143.718 101.185L196.454 100.188L198.946 98.3813L172.064 97.478L172.189 97.3534L200.472 96.6058L203.276 94.2384L176.799 93.4597L177.017 93.3039L204.865 92.5252Z" fill="#009FDF"/>
<path fill-rule="evenodd" clip-rule="evenodd" d="M173.715 155.572L173.746 155.479L200.815 166.817L199.694 164.544L174.743 152.582L174.774 152.457L198.728 162.612L197.451 160.058L175.771 149.561L175.802 149.467L196.61 158.438L195.208 155.635L140.323 130.902L147.954 145.2L155.274 149.934L203.837 172.798L201.937 169.029L173.715 155.572Z" fill="#182F7B"/>
<path fill-rule="evenodd" clip-rule="evenodd" d="M242.244 69.1007L243.771 67.8235L242.244 66.3907L204.304 65.3939L204.055 65.1758L240.033 64.2102L236.887 61.2821L198.23 60.3165L197.981 60.0984L233.99 59.1951L230.812 56.267L167.703 55.3325L155.088 64.584H155.056L176.892 64.1479L188.698 72.6829L177.609 80.6572L230.812 79.2555L233.99 76.6078L194.336 75.5175L194.585 75.2995L236.887 74.1469L240.033 71.4992L200.255 70.5024L200.66 70.1598L242.244 69.1007Z" fill="#182F7B"/>
<path fill-rule="evenodd" clip-rule="evenodd" d="M78.8641 45.5828L78.9576 45.5516L91.0125 39.384L74.4409 38.4183V38.2003L95.4981 37.0789L100.108 34.7115L74.4409 33.2475V33.0294L106.089 31.6588L113.658 27.7651L49.8638 27.8897L78.8641 45.5828Z" fill="#182F7B"/>
<path fill-rule="evenodd" clip-rule="evenodd" d="M17.655 48.2927L32.9495 44.5859L27.7164 38.8232L17.655 48.2927Z" fill="#F7941E"/>
<path fill-rule="evenodd" clip-rule="evenodd" d="M176.269 10.4458L263.738 12.1279L268.41 16.3642L205.301 18.3578L183.589 17.8906L75.8115 111.963L67.6814 106.48L65.2829 89.348C64.1303 81.249 59.1152 72.4025 53.5083 64.7086C48.4932 57.8245 43.042 51.8749 39.4286 48.1992L39.3663 48.1369L28.7131 38.0133C32.856 33.9015 41.1419 28.6372 49.8638 27.9208L78.8641 45.6138L78.9576 45.5515L107.086 62.6215L94.1898 78.9751L176.269 10.4458ZM41.796 40.2249L47.2472 37.0165L38.9925 38.9789L41.796 40.2249Z" fill="#F7941E"/>
<path fill-rule="evenodd" clip-rule="evenodd" d="M174.805 107.695L171.752 105.016L157.081 104.798L156.738 104.642L170.911 104.3L167.485 101.527L124.312 100.936L124.343 100.967L131.569 114.517L167.485 114.797L170.911 112.118L156.738 111.744L157.081 111.589L171.752 111.184L174.805 108.598L160.726 108.225V108.069L174.805 107.695Z" fill="#F7941E"/>
<path fill-rule="evenodd" clip-rule="evenodd" d="M243.148 42.9971L237.915 46.7662L272.428 45.8317L277.132 41.8757L240.188 40.8789L243.148 42.9971Z" fill="#E45620"/>
<path fill-rule="evenodd" clip-rule="evenodd" d="M227.635 54.1177L263.737 53.152L268.41 49.2272L235.672 48.355L227.635 54.1177Z" fill="#E45620"/>
<path fill-rule="evenodd" clip-rule="evenodd" d="M238.319 39.5397L281.244 38.3871L285.76 34.5557L229.317 33.0605L238.319 39.5397Z" fill="#E45620"/>
<path fill-rule="evenodd" clip-rule="evenodd" d="M28.7132 37.9819L27.7164 38.823L32.9495 44.5857L17.655 48.2925L39.4598 48.1679H39.4287L28.7132 37.9819Z" fill="#E45620"/>
<path fill-rule="evenodd" clip-rule="evenodd" d="M145.898 90.5628L145.805 90.5005L145.898 90.5628Z" fill="#E45620"/>
<path fill-rule="evenodd" clip-rule="evenodd" d="M167.36 50.5042L229.286 48.8222L229.753 48.4172L169.728 46.922L172.095 46.5482L232.962 44.8039L233.616 44.4301L174.463 42.9349L176.83 42.4676L233.616 40.8478L232.962 40.5052L179.197 38.9166L181.565 38.5116L229.753 36.8918L229.286 36.4869L183.963 34.9294L186.331 34.5245L225.548 33.3408L224.956 32.8424L188.698 31.0357L191.065 30.5996L224.863 29.8832L228.538 32.5309L285.76 30.9734L281.244 27.1731L218.166 25.491V25.273L277.132 23.6844L272.428 19.7595L205.27 18.3266L183.589 17.8594L75.8115 111.931L162.065 171.614L124.312 100.967H124.343L124.312 100.936L124.031 100.406L143.749 99.7519L143.967 99.5962L123.408 99.2224L123.128 98.6617L145.836 98.0075L146.023 97.8829L122.38 97.2911L122.131 96.855L148.017 96.1074L148.266 95.9516L121.29 95.2975L121.165 94.986L148.266 94.2384L148.017 94.0827L121.788 93.3039L122.38 93.0547L146.023 92.3383L145.836 92.1514L124.062 91.4038L124.654 91.1234L143.967 90.625L143.749 90.3758L126.336 89.5037L127.115 89.3168H129.077L138.89 80.9375L133.438 80.8752L135.027 80.5948L176.923 79.2243L177.235 78.9751L136.616 78.2275L138.204 77.9783L179.82 76.7634L180.07 76.5765L139.824 75.5797L141.413 75.2994L182.998 74.0846L183.247 73.8977L143.001 72.9009L144.59 72.5582L183.247 71.468L182.998 71.2499L146.179 70.1908L147.767 69.9105L180.07 68.8203L179.82 68.5711L149.356 67.512L150.976 67.2316L177.235 66.4217L176.923 66.1102L152.564 64.8954L153.717 64.6774L155.368 64.5839H155.056H155.087H154.153H155.087L167.703 55.3325H168.015L160.227 54.8341L162.595 54.398L224.956 52.4667L225.548 51.9994L164.962 50.9092L167.36 50.5042Z" fill="#E45620"/>
<path fill-rule="evenodd" clip-rule="evenodd" d="M148.235 97.9451L148.266 97.914L148.235 97.9451Z" fill="#E45620"/>
<path fill-rule="evenodd" clip-rule="evenodd" d="M39.0236 38.9788C39.0236 38.9788 50.2063 30.8487 50.7982 30.5684L33.0117 38.5427L39.0236 38.9788Z" fill="#E45620"/>
</svg>
