<svg width="100" height="90" viewBox="0 0 100 90" fill="none" xmlns="http://www.w3.org/2000/svg">
<path fill-rule="evenodd" clip-rule="evenodd" d="M31.2074 80.9137V80.9851L29.555 80.9749H27.362L27.3722 76.7113L23.5064 76.6909L23.4962 81.2095L23.486 84.6163L23.4758 88.3903L23.4656 89.2777L27.3314 89.2981L27.3416 88.4005L27.3518 84.8203V84.3307L31.1972 84.3409V85.0141L31.187 88.4107V89.3083L35.0528 89.3185V88.4209L35.063 85.2079L35.0732 80.7607L35.0936 76.7317L31.2278 76.7215L31.2074 80.9137Z" fill="white"/>
<path fill-rule="evenodd" clip-rule="evenodd" d="M44.8141 80.3836L44.8039 84.1576C44.8039 84.8716 44.5591 85.3612 44.1817 85.6774C43.8553 85.9528 43.4167 86.0956 42.9271 86.0956C42.3661 86.0956 41.8765 85.912 41.5297 85.5448C41.2339 85.2286 41.0401 84.7798 41.0401 84.1474L41.0503 80.5366L41.0605 76.7626L37.1947 76.7524L37.1845 80.6896L37.1743 84.127C37.1743 84.5554 37.2049 84.9532 37.2661 85.3408C37.4599 86.5138 37.9699 87.4624 38.7961 88.1764C38.9185 88.2784 39.0511 88.36 39.1735 88.4518C40.2037 89.2066 41.4277 89.6044 42.9067 89.6146C44.3755 89.6248 45.6097 89.227 46.6297 88.4824C46.7521 88.3906 46.8847 88.309 47.0071 88.207C47.7007 87.6052 48.1495 86.83 48.4045 85.912C48.5473 85.3816 48.6493 84.8104 48.6595 84.1678L48.6697 80.251L48.6799 76.7932L44.8141 76.783V80.3836Z" fill="white"/>
<path fill-rule="evenodd" clip-rule="evenodd" d="M57.3703 81.2809L54.6265 76.8031L50.8015 76.7827L50.7913 80.1487L50.7709 86.0137L50.7607 88.4719V89.3695L54.5041 89.3899V88.4923L54.5143 86.2075L54.5245 82.3315L55.1263 83.3209L56.3605 85.3405L58.4515 85.3507L60.2365 82.3519L60.2161 88.5127V89.4001L63.9187 89.4205L63.9289 88.5229L63.9595 76.8337L60.1549 76.8133L57.3703 81.2809Z" fill="white"/>
<path fill-rule="evenodd" clip-rule="evenodd" d="M67.55 78.5169C68.8352 77.2419 70.457 76.5993 72.395 76.6095C74.3432 76.6095 75.9345 77.2623 77.1993 78.5475C78.4641 79.8327 79.0965 81.3627 79.0863 83.1783C79.0863 84.9939 78.4539 86.5341 77.1687 87.8091C76.8729 88.0947 76.5669 88.3395 76.2404 88.5639C75.1388 89.3187 73.8434 89.7063 72.344 89.6961C70.8548 89.6859 69.5594 89.2881 68.4578 88.5333C68.1314 88.3089 67.8152 88.0539 67.5194 87.7581C66.2546 86.4729 65.6222 84.9225 65.6324 83.1273C65.6324 81.3117 66.2648 79.7919 67.55 78.5169ZM72.3644 86.1669C73.1702 86.1771 73.8434 85.8915 74.3636 85.3305C74.894 84.7593 75.1592 84.0453 75.1592 83.1579C75.1592 82.2807 74.894 81.5565 74.3738 80.9955C73.8638 80.4243 73.1906 80.1285 72.3848 80.1285C71.579 80.1285 70.9058 80.4141 70.3856 80.9853C69.8654 81.5361 69.59 82.2603 69.59 83.1375C69.59 84.0249 69.8552 84.7389 70.3754 85.3203C70.8854 85.8711 71.5586 86.1669 72.3644 86.1669Z" fill="white"/>
<path fill-rule="evenodd" clip-rule="evenodd" d="M99.4454 10.3809L88.1846 0.915277L57.1256 0.313477L36.4094 17.5005L32.9516 15.4197L46.4666 5.98468L16.5092 6.06628C12.9596 6.20908 9.89962 8.06548 7.83922 10.1565L0.607422 18.4185H12.1028C16.0196 22.6005 18.5798 26.7111 18.9572 29.4447L19.916 36.2991L69.6818 70.6527L66.7748 59.3613L73.5272 62.5437L68.1416 52.0479L70.8956 52.4049L60.41 40.7769L57.1256 39.6549L61.9604 35.5035H66.02L72.7214 29.5059L71.63 28.5165L77.495 28.5777L85.1552 21.7947L83.207 20.1627L88.5722 20.0199L99.4454 10.3809Z" fill="white"/>
<path fill-rule="evenodd" clip-rule="evenodd" d="M62.0829 46.8049L53.2395 43.8061C53.2395 43.7959 53.2497 43.7857 53.2497 43.7653L61.6137 46.1725L61.0221 45.4075L53.423 42.7453C53.423 42.7351 53.4231 42.7249 53.4333 42.7147L60.6345 44.9077L59.9511 44.0203L53.6067 41.6845C53.6067 41.6743 53.6067 41.6641 53.6169 41.6539L59.6655 43.6327L59.0943 42.8881L43.6208 37.6045L46.3544 42.7147L63.0111 47.9779L62.0829 46.8049Z" fill="#009FDF"/>
<path fill-rule="evenodd" clip-rule="evenodd" d="M55.2182 56.0563L55.1672 55.9135L64.3268 61.9213L64.0106 60.6667L54.3206 53.7001L54.2594 53.5369L63.776 59.7589L63.4802 58.5553L53.4026 51.2929L53.3516 51.1603L63.2864 57.8005L62.9702 56.5357L48.833 47.3965L53.4536 56.0461L64.8164 63.8899L64.5104 62.6659L55.2182 56.0563Z" fill="#009FDF"/>
<path fill-rule="evenodd" clip-rule="evenodd" d="M67.4685 30.1484L67.9275 29.771L67.4685 29.3528L58.3803 29.1182L58.3191 29.057L66.9483 28.8326L66.0303 27.9758L56.7381 27.731L56.7075 27.7004L65.5305 27.4862L64.7145 26.6192L45.9057 26.354H45.8649L42.6519 29.0978L47.4459 28.9958L50.2203 30.9848L47.4459 32.984L64.7145 32.6576L65.5305 32.066L56.7279 31.7702L56.7687 31.7294L66.0303 31.4846L66.9483 30.7094L58.2783 30.4544L58.3497 30.4034L67.4685 30.1484Z" fill="#009FDF"/>
<path fill-rule="evenodd" clip-rule="evenodd" d="M57.2684 50.7932L57.2786 50.7626L66.1424 54.4754L65.7752 53.7308L57.605 49.814L57.6152 49.7732L65.459 53.0984L65.0408 52.262L57.9416 48.8246L57.9518 48.794L64.7654 51.7316L64.3064 50.8136L46.334 42.7148L48.833 47.3966L51.23 48.947L67.1318 56.4338L66.5096 55.1996L57.2684 50.7932Z" fill="#182F7B"/>
<path fill-rule="evenodd" clip-rule="evenodd" d="M79.7085 22.4781L80.2083 22.0599L79.7085 21.5907L67.2849 21.2643L67.2033 21.1929L78.9843 20.8767L77.9541 19.9179L65.2959 19.6017L65.2143 19.5303L77.0055 19.2345L75.9651 18.2757L55.2999 17.9697L51.1689 20.9991H51.1587L58.3089 20.8563L62.1747 23.6511L58.5435 26.2623L75.9651 25.8033L77.0055 24.9363L64.0209 24.5793L64.1025 24.5079L77.9541 24.1305L78.9843 23.2635L65.9589 22.9371L66.0915 22.8249L79.7085 22.4781Z" fill="#182F7B"/>
<path fill-rule="evenodd" clip-rule="evenodd" d="M26.2093 14.7773L26.2399 14.7671L30.1873 12.7475L24.7609 12.4313V12.3599L31.6561 11.9927L33.1657 11.2175L24.7609 10.7381V10.6667L35.1241 10.2179L37.6027 8.94287L16.7131 8.98367L26.2093 14.7773Z" fill="#182F7B"/>
<path fill-rule="evenodd" clip-rule="evenodd" d="M6.1665 15.6643L11.1747 14.4505L9.4611 12.5635L6.1665 15.6643Z" fill="#F7941E"/>
<path fill-rule="evenodd" clip-rule="evenodd" d="M58.1048 3.27148L86.7463 3.82228L88.2764 5.20948L67.6112 5.86228L60.5018 5.70928L25.2098 36.5133L22.5476 34.7181L21.7622 29.1081C21.3848 26.4561 19.7426 23.5593 17.9066 21.0399C16.2644 18.7857 14.4794 16.8375 13.2962 15.6339L13.2758 15.6135L9.78735 12.2985C11.144 10.9521 13.8572 9.22828 16.7132 8.99368L26.2094 14.7873L26.24 14.7669L35.4506 20.3565L31.2278 25.7115L58.1048 3.27148ZM14.0714 13.0227L15.8564 11.9721L13.1534 12.6147L14.0714 13.0227Z" fill="#F7941E"/>
<path fill-rule="evenodd" clip-rule="evenodd" d="M57.6255 35.1157L56.6259 34.2385L51.8217 34.1671L51.7095 34.1161L56.3505 34.0039L55.2285 33.0961L41.0913 32.9023L41.1015 32.9125L43.4679 37.3495L55.2285 37.4413L56.3505 36.5641L51.7095 36.4417L51.8217 36.3907L56.6259 36.2581L57.6255 35.4115L53.0151 35.2891V35.2381L57.6255 35.1157Z" fill="#F7941E"/>
<path fill-rule="evenodd" clip-rule="evenodd" d="M80.0041 13.9304L78.2905 15.1646L89.5921 14.8586L91.1323 13.5632L79.0351 13.2368L80.0041 13.9304Z" fill="#E45620"/>
<path fill-rule="evenodd" clip-rule="evenodd" d="M74.9246 17.5721L86.7464 17.2559L88.2764 15.9707L77.5562 15.6851L74.9246 17.5721Z" fill="#E45620"/>
<path fill-rule="evenodd" clip-rule="evenodd" d="M78.4231 12.7984L92.4787 12.421L93.9577 11.1664L75.4753 10.6768L78.4231 12.7984Z" fill="#E45620"/>
<path fill-rule="evenodd" clip-rule="evenodd" d="M9.7875 12.2881L9.4611 12.5635L11.1747 14.4505L6.1665 15.6643L13.3065 15.6235H13.2963L9.7875 12.2881Z" fill="#E45620"/>
<path fill-rule="evenodd" clip-rule="evenodd" d="M48.1598 29.506L48.1292 29.4856L48.1598 29.506Z" fill="#E45620"/>
<path fill-rule="evenodd" clip-rule="evenodd" d="M55.1875 16.3888L75.4651 15.838L75.6181 15.7054L55.9627 15.2158L56.7379 15.0934L76.6687 14.5222L76.8829 14.3998L57.5131 13.9102L58.2883 13.7572L76.8829 13.2268L76.6687 13.1146L59.0635 12.5944L59.8387 12.4618L75.6181 11.9314L75.4651 11.7988L60.6241 11.2888L61.3993 11.1562L74.2411 10.7686L74.0473 10.6054L62.1745 10.0138L62.9497 9.87102L74.0167 9.63642L75.2203 10.5034L93.9577 9.99342L92.4787 8.74902L71.8237 8.19822V8.12682L91.1323 7.60662L89.5921 6.32142L67.6009 5.85222L60.5017 5.69922L25.2097 36.5032L53.4535 56.0464L41.0911 32.9128H41.1013L41.0911 32.9026L40.9993 32.7292L47.4559 32.515L47.5273 32.464L40.7953 32.3416L40.7035 32.158L48.1393 31.9438L48.2005 31.903L40.4587 31.7092L40.3771 31.5664L48.8533 31.3216L48.9349 31.2706L40.1017 31.0564L40.0609 30.9544L48.9349 30.7096L48.8533 30.6586L40.2649 30.4036L40.4587 30.322L48.2005 30.0874L48.1393 30.0262L41.0095 29.7814L41.2033 29.6896L47.5273 29.5264L47.4559 29.4448L41.7541 29.1592L42.0091 29.098H42.6517L45.8647 26.3542L44.0797 26.3338L44.5999 26.242L58.3189 25.7932L58.4209 25.7116L45.1201 25.4668L45.6403 25.3852L59.2675 24.9874L59.3491 24.9262L46.1707 24.5998L46.6909 24.508L60.3079 24.1102L60.3895 24.049L47.2111 23.7226L47.7313 23.6104L60.3895 23.2534L60.3079 23.182L48.2515 22.8352L48.7717 22.7434L59.3491 22.3864L59.2675 22.3048L49.2919 21.958L49.8223 21.8662L58.4209 21.601L58.3189 21.499L50.3425 21.1012L50.7199 21.0298L51.2605 20.9992H51.1585H51.1687H50.8627H51.1687L55.2997 17.9698H55.4017L52.8517 17.8066L53.6269 17.6638L74.0473 17.0314L74.2411 16.8784L54.4021 16.5214L55.1875 16.3888Z" fill="#E45620"/>
<path fill-rule="evenodd" clip-rule="evenodd" d="M48.9248 31.9233L48.935 31.9131L48.9248 31.9233Z" fill="#E45620"/>
<path fill-rule="evenodd" clip-rule="evenodd" d="M13.1637 12.6148C13.1637 12.6148 16.8255 9.95264 17.0193 9.86084L11.1951 12.472L13.1637 12.6148Z" fill="#E45620"/>
</svg>
