<svg width="44" height="37" viewBox="0 0 44 37" fill="none" xmlns="http://www.w3.org/2000/svg">
<path fill-rule="evenodd" clip-rule="evenodd" d="M39.4962 9.304C39.5156 9.69383 39.5217 10.0857 39.5217 10.4786C39.5217 22.4882 30.4424 36.3369 13.839 36.3369C8.73812 36.3369 3.99533 34.8321 -0.000488281 32.2545C0.707605 32.3378 1.42491 32.38 2.15449 32.38C6.38361 32.38 10.275 30.9277 13.3653 28.4889C9.41449 28.4169 6.08072 25.7889 4.93365 22.1776C5.48212 22.2846 6.04798 22.3411 6.63021 22.3411C7.45393 22.3411 8.25105 22.229 9.00928 22.0223C4.8784 21.1891 1.76667 17.5141 1.76667 13.1138C1.76667 13.0727 1.76667 13.0346 1.76872 12.9966C2.98435 13.6785 4.377 14.0879 5.85663 14.1342C3.43356 12.5059 1.84137 9.7216 1.84137 6.568C1.84137 4.9048 2.28649 3.34343 3.06212 2.00217C7.51533 7.49989 14.1685 11.1163 21.669 11.4959C21.5145 10.8314 21.4347 10.1371 21.4347 9.42434C21.4347 4.40697 25.4776 0.336914 30.4639 0.336914C33.0599 0.336914 35.4062 1.4416 37.0526 3.20869C39.1104 2.80137 41.0413 2.04229 42.7859 1.0024C42.1116 3.12331 40.6801 4.9048 38.8167 6.02903C40.6422 5.80994 42.3817 5.3224 43.9995 4.59931C42.791 6.42091 41.2603 8.02034 39.4962 9.304Z" fill="#1DA1F2"/>
</svg>
