<svg width="47" height="29" viewBox="0 0 47 29" fill="none" xmlns="http://www.w3.org/2000/svg">
<path fill-rule="evenodd" clip-rule="evenodd" d="M38.4594 14.4913C37.9264 15.3663 37.7134 15.8033 38.4594 16.7853C38.9924 17.5513 40.7524 19.0813 41.9254 20.5023C44.0864 22.9943 45.7154 25.0973 46.1694 26.5463C46.5844 28.0003 45.8654 28.7383 44.4274 28.7383H39.3954C37.4764 28.7383 36.9134 27.1683 33.5014 23.6713C30.5154 20.7213 29.2354 20.3383 28.4894 20.3383C27.4764 20.3383 27.1744 20.6323 27.1744 22.1063V26.7323C27.1744 28.0003 26.7774 28.7383 23.5794 28.7383C18.2474 28.7383 12.3884 25.4203 8.23038 19.3003C1.99238 10.3393 0.286377 3.56228 0.286377 2.19628C0.286377 1.43128 0.574377 0.738281 2.01138 0.738281H7.04438C8.33038 0.738281 8.81338 1.31428 9.29638 2.74228C11.7574 10.0913 15.9074 16.5133 17.6134 16.5133C18.2534 16.5133 18.5464 16.2113 18.5464 14.5463V6.95028C18.3594 3.45328 16.5474 3.16628 16.5474 1.92328C16.5474 1.34628 17.0284 0.738281 17.8284 0.738281H25.7354C26.8024 0.738281 27.1734 1.32228 27.1734 2.63428V12.8523C27.1734 13.9453 27.6364 14.3273 27.9564 14.3273C28.5964 14.3273 29.1294 13.9453 30.3024 12.7423C33.9274 8.58928 36.4864 2.19628 36.4864 2.19628C36.8064 1.43128 37.3974 0.738281 38.6764 0.738281H43.7084C45.2304 0.738281 45.5504 1.54128 45.2304 2.63428C44.5904 5.63928 38.4594 14.4913 38.4594 14.4913Z" fill="#5181B8"/>
</svg>
