<svg width="1440" height="2638" viewBox="0 0 1440 2638" fill="none" xmlns="http://www.w3.org/2000/svg">
<rect y="3.05176e-05" width="1440" height="2638" fill="url(#paint0_linear)"/>
<path d="M1658 1750C1336.31 1750 1020.71 1722.61 705.066 1639.61C546.064 1597.79 385.009 1546.37 241.484 1448.79C150.074 1386.65 65.5904 1303.29 -9.27576 1213.46C-76.8849 1132.35 -142.995 1048.33 -209.454 965.673C-225.682 945.489 -258.494 918.009 -266 890" stroke="url(#paint1_linear)" stroke-width="300" stroke-linecap="round" stroke-linejoin="round"/>
<path d="M901.775 99.5271C1055.03 145.495 1096.3 88.8592 1204.56 118.93C1368.55 164.176 1519.37 361.252 1492 486.215C1474.38 566.236 1551.73 500.575 1445.08 629.38C1431.06 646.187 1287.3 812.316 1332.74 914.84C1527.61 1168.28 1573.73 1097.63 1573.94 1143.54C1575.17 1412.24 1216.78 2028.53 830.257 1673.41C695.306 1549.42 532.962 1556.66 480.245 1372.35C442.724 1196.81 653.34 1111.88 640.817 1018.42C628.042 924.843 529.728 965.517 529.728 965.517C529.728 965.517 404.187 1066.9 240.735 1043.86C142.65 1024.17 51.6843 862.193 50.736 769.643C49.7877 677.093 107.424 640.379 94.1592 525.232C81.5325 414.841 18.633 400.082 23.6448 311.292C4.87287 135.193 238.001 26.7135 303.404 20.2532C343.654 16.2433 377.812 26.3703 396.646 32.2697C474.623 56.357 480.583 94.4996 531.419 106.583C603.713 123.973 626.878 55.4933 722.315 47.0651C789.222 41.3213 810.481 72.1676 901.775 99.5271Z" fill="url(#paint2_linear)"/>
<path d="M1213.69 1249.56C1261.97 1375.85 1321.35 1386.67 1357.07 1475.09C1284.67 1728.91 1025.18 1738.36 927.052 1760.55C860.911 1775.5 1161.37 1826.16 1138.21 1820.54C1119.67 1816.04 933.743 1767.87 888.302 1835.18C818.613 2061.27 889.935 2070.9 859.179 2086.47C679.21 2177.63 79.8154 2125.43 118.836 1726.55C132.46 1587.29 43.7278 1472.29 140.382 1372.24C238.992 1286.13 404.885 1409.94 461.235 1369.49C517.535 1328.81 439.407 1271.36 439.407 1271.36C439.407 1271.36 306.404 1214.62 237.453 1088.65C200.022 1011.09 261.903 890.875 323.622 859.098C385.341 827.321 439.794 856.677 510.339 808.401C578.017 762.183 555.444 711.728 617.715 685.525C726.385 612.789 919.735 744.974 957.864 790.111C981.352 817.878 992.191 845.987 997.955 861.592C1022.05 926.086 999.488 943.21 1017.63 984.04C1043.29 1042.17 1101.28 1035.92 1156.25 1102.12C1194.67 1148.59 1184.92 1174.33 1213.69 1249.56Z" fill="url(#paint3_linear)"/>
<path d="M143.695 2490.5C27.6401 2439.59 -61.55 2319.72 -39.1618 2248.47C-18.7053 2183.16 -42.9951 2189.45 -7.9214 2114.59C31.937 2029.9 -143.273 2015.49 -135.367 1819.22C-129.349 1669.77 331.023 1403.51 712.241 1561.2C842.167 1614.87 1049.12 1699.49 1115.62 1928.36C1166.71 2104.2 1233.69 2039.43 1450.09 2205.34C1481.82 2229.77 1737.15 2474.96 1221.83 2620.31C1096.11 2655.77 1015.08 2745.66 827.433 2693.15C673.628 2650.07 741.052 2567.59 650.412 2509.96C504.641 2417.3 339.901 2576.27 143.695 2490.5Z" fill="url(#paint4_linear)"/>
<path d="M315.684 2530.43C152.307 2490.57 9.44711 2414.69 42.6478 2278.6C75.8485 2142.52 207.742 2031.7 376.234 2039.67C744.482 2057.13 697.701 2248.87 664.545 2384.77C631.39 2520.66 479.061 2570.29 315.684 2530.43Z" fill="url(#paint5_linear)" fill-opacity="0.8"/>
<path d="M1508 215.728C1508 320.25 1409.5 365.012 1288.81 345C1095.47 312.941 1020 170.294 1020 65.7713C1020 -38.7514 1182.32 -40.7496 1288.81 -33.5102C1429.42 1.6518 1508 111.205 1508 215.728Z" fill="url(#paint6_linear)" fill-opacity="0.95"/>
<path d="M1100 1284.25C1100 1531.99 1330.62 1615 1438.02 1615C1690.38 1615 1977 1385.55 1977 1137.8C1977 890.061 1790.64 1106.67 1611.97 1106.67C1433.29 1106.67 1100 1036.5 1100 1284.25Z" fill="url(#paint7_linear)" fill-opacity="0.95"/>
<path d="M133.757 570.092C187.294 602.364 163.797 651.662 141.55 696.044C86.7179 771.309 10.4882 767.651 -34.0794 745.311C-78.6471 722.971 -67.811 646.047 -42.0519 602.364C-4.36182 538.448 89.1896 547.752 133.757 570.092Z" fill="url(#paint8_linear)" fill-opacity="0.95"/>
<g clip-path="url(#clip0)">
<path d="M1245.97 2550.78C1153.02 2551.05 1105.05 2555.1 1062.74 2558.66C1025.57 2561.79 996.22 2564.27 932.339 2564.46C868.471 2564.65 839.102 2562.35 801.93 2559.44C759.601 2556.12 711.61 2552.37 618.655 2552.64C525.712 2552.92 477.745 2556.96 435.435 2560.53C398.282 2563.66 368.927 2566.13 305.059 2566.32C241.19 2566.51 211.822 2564.21 174.65 2561.3C132.308 2557.99 84.3174 2554.23 -8.62549 2554.51L-8.59388 2565.13C55.2864 2564.94 84.6432 2567.24 121.815 2570.15C164.157 2573.46 212.135 2577.22 305.09 2576.94C398.033 2576.67 446.001 2572.63 488.31 2569.06C525.464 2565.93 554.818 2563.45 618.687 2563.26C682.567 2563.07 711.924 2565.37 749.108 2568.28C791.438 2571.6 839.428 2575.35 932.371 2575.08C1025.33 2574.8 1073.29 2570.76 1115.61 2567.19C1152.77 2564.06 1182.12 2561.59 1246 2561.4C1309.88 2561.21 1339.24 2563.51 1376.42 2566.42C1418.75 2569.73 1466.74 2573.49 1559.7 2573.21L1559.67 2562.59C1495.79 2562.78 1466.42 2560.48 1429.25 2557.57C1386.91 2554.26 1338.91 2550.5 1245.97 2550.78Z" fill="white"/>
<path d="M1245.78 2488.12C1152.83 2488.4 1104.86 2492.44 1062.55 2496.01C1025.39 2499.14 996.033 2501.61 932.153 2501.8C868.284 2501.99 838.916 2499.69 801.744 2496.78C759.414 2493.47 711.423 2489.71 618.469 2489.99C525.526 2490.27 477.558 2494.31 435.249 2497.87C398.095 2501 368.74 2503.48 304.872 2503.67C241.004 2503.86 211.635 2501.56 174.463 2498.65C132.121 2495.34 84.1308 2491.58 -8.81201 2491.86L-8.78041 2502.48C55.0999 2502.29 84.4567 2504.59 121.628 2507.5C163.97 2510.81 211.949 2514.57 304.904 2514.29C397.847 2514.01 445.814 2509.97 488.123 2506.41C525.277 2503.27 554.632 2500.8 618.5 2500.61C682.38 2500.42 711.737 2502.72 748.921 2505.63C791.251 2508.94 839.241 2512.7 932.184 2512.42C1025.14 2512.15 1073.11 2508.1 1115.43 2504.54C1152.58 2501.41 1181.94 2498.94 1245.82 2498.75C1309.7 2498.56 1339.05 2500.85 1376.24 2503.76C1418.57 2507.08 1466.56 2510.83 1559.51 2510.56L1559.48 2499.94C1495.6 2500.13 1466.23 2497.83 1429.06 2494.92C1386.72 2491.6 1338.73 2487.85 1245.78 2488.12Z" fill="white"/>
<path d="M1245.88 2519.45C1152.92 2519.73 1104.96 2523.77 1062.65 2527.33C1025.48 2530.47 996.126 2532.94 932.246 2533.13C868.378 2533.32 839.009 2531.02 801.837 2528.11C759.507 2524.8 711.517 2521.04 618.562 2521.32C525.619 2521.59 477.652 2525.64 435.342 2529.2C398.188 2532.33 368.834 2534.81 304.965 2535C241.097 2535.19 211.728 2532.89 174.557 2529.98C132.215 2526.66 84.2241 2522.91 -8.71875 2523.18L-8.68715 2533.81C55.1931 2533.62 84.55 2535.91 121.722 2538.82C164.064 2542.14 212.042 2545.89 304.997 2545.62C397.94 2545.34 445.907 2541.3 488.217 2537.73C525.371 2534.6 554.725 2532.13 618.593 2531.94C682.474 2531.75 711.831 2534.05 749.014 2536.96C791.344 2540.27 839.335 2544.03 932.278 2543.75C1025.23 2543.47 1073.2 2539.43 1115.52 2535.87C1152.67 2532.74 1182.03 2530.26 1245.91 2530.07C1309.79 2529.88 1339.15 2532.18 1376.33 2535.09C1418.66 2538.4 1466.65 2542.16 1559.61 2541.88L1559.57 2531.26C1495.69 2531.45 1466.33 2529.15 1429.15 2526.24C1386.81 2522.93 1338.82 2519.17 1245.88 2519.45Z" fill="white"/>
<path d="M1428.97 2463.59C1386.63 2460.28 1338.63 2456.52 1245.69 2456.8C1152.74 2457.07 1104.77 2461.11 1062.46 2464.68C1025.29 2467.81 995.94 2470.29 932.06 2470.48C868.191 2470.67 838.822 2468.37 801.651 2465.46C759.321 2462.14 711.33 2458.39 618.375 2458.66C525.432 2458.94 477.465 2462.98 435.156 2466.55C398.002 2469.68 368.647 2472.15 304.779 2472.34C240.911 2472.53 211.542 2470.23 174.37 2467.32C132.028 2464.01 84.0376 2460.25 -8.90527 2460.53L-8.87367 2471.15C55.0066 2470.96 84.3635 2473.26 121.535 2476.17C163.877 2479.48 211.856 2483.24 304.811 2482.96C397.753 2482.69 445.721 2478.65 488.03 2475.08C525.184 2471.95 554.539 2469.47 618.407 2469.28C682.287 2469.09 711.644 2471.39 748.828 2474.3C791.158 2477.62 839.148 2481.37 932.091 2481.1C1025.05 2480.82 1073.01 2476.78 1115.33 2473.21C1152.49 2470.08 1181.84 2467.61 1245.72 2467.42C1309.6 2467.23 1338.96 2469.53 1376.14 2472.44C1418.47 2475.75 1466.46 2479.51 1559.42 2479.23L1559.39 2468.61C1495.51 2468.8 1466.14 2466.5 1428.97 2463.59Z" fill="white"/>
</g>
<rect x="655" y="2245" width="60" height="25" rx="12.5" fill="#4D60A9"/>
<rect x="672" y="2259" width="56" height="21" rx="10.5" stroke="white" stroke-width="4"/>
<g clip-path="url(#clip1)">
<path d="M1171.3 705.374C1081.33 705.577 1034.89 709.526 993.937 713.009C957.961 716.068 929.545 718.483 867.712 718.623C805.891 718.763 777.465 716.476 741.486 713.58C700.515 710.281 654.065 706.543 564.089 706.747C474.125 706.95 427.692 710.899 386.737 714.382C350.771 717.44 322.356 719.856 260.535 719.996C198.713 720.135 170.287 717.848 134.309 714.952C93.3259 711.655 46.8759 707.916 -43.0884 708.119L-43.0647 718.588C18.7683 718.448 47.1828 720.736 83.1613 723.633C124.144 726.93 170.582 730.668 260.558 730.465C350.523 730.261 396.955 726.314 437.911 722.831C473.876 719.771 502.291 717.355 564.113 717.216C625.946 717.076 654.36 719.363 690.35 722.26C731.322 725.558 777.772 729.295 867.736 729.092C957.712 728.889 1004.14 724.941 1045.11 721.458C1081.08 718.4 1109.49 715.983 1171.33 715.843C1233.16 715.703 1261.57 717.99 1297.56 720.887C1338.53 724.185 1384.98 727.923 1474.96 727.719L1474.94 717.25C1413.1 717.39 1384.68 715.103 1348.7 712.207C1307.72 708.91 1261.27 705.171 1171.3 705.374Z" fill="white"/>
<path d="M1171.16 643.62C1081.19 643.823 1034.75 647.771 993.798 651.253C957.821 654.312 929.406 656.729 867.573 656.869C805.751 657.008 777.325 654.72 741.346 651.824C700.375 648.527 653.925 644.789 563.95 644.992C473.985 645.196 427.553 649.143 386.597 652.626C350.632 655.684 322.216 658.102 260.395 658.241C198.573 658.381 170.147 656.092 134.169 653.197C93.1863 649.899 46.7362 646.161 -43.228 646.365L-43.2044 656.834C18.6287 656.694 47.0432 658.981 83.0217 661.877C124.004 665.176 170.443 668.914 260.419 668.71C350.383 668.507 396.816 664.558 437.771 661.075C473.736 658.017 502.152 655.601 563.973 655.461C625.806 655.321 654.221 657.609 690.211 660.504C731.182 663.803 777.632 667.541 867.596 667.338C957.572 667.134 1004 663.185 1044.97 659.702C1080.94 656.644 1109.35 654.228 1171.19 654.089C1233.02 653.949 1261.43 656.236 1297.42 659.132C1338.39 662.431 1384.84 666.168 1474.82 665.965L1474.8 655.496C1412.96 655.636 1384.54 653.347 1348.56 650.451C1307.58 647.154 1261.13 643.416 1171.16 643.62Z" fill="white"/>
<path d="M1171.23 674.498C1081.26 674.701 1034.82 678.649 993.867 682.131C957.891 685.19 929.475 687.607 867.642 687.747C805.821 687.886 777.395 685.598 741.416 682.702C700.445 679.404 653.995 675.667 564.019 675.87C474.055 676.074 427.622 680.021 386.667 683.504C350.702 686.562 322.286 688.979 260.465 689.119C198.643 689.259 170.217 686.97 134.239 684.075C93.2561 680.777 46.806 677.039 -43.1582 677.243L-43.1345 687.712C18.6985 687.572 47.113 689.859 83.0915 692.755C124.074 696.052 170.513 699.791 260.488 699.588C350.453 699.385 396.885 695.436 437.841 691.953C473.806 688.894 502.222 686.479 564.043 686.339C625.876 686.199 654.291 688.486 690.281 691.382C731.252 694.68 777.702 698.419 867.666 698.215C957.642 698.012 1004.07 694.063 1045.04 690.58C1081.01 687.522 1109.42 685.106 1171.26 684.966C1233.09 684.827 1261.5 687.114 1297.49 690.01C1338.46 693.307 1384.91 697.046 1474.89 696.843L1474.87 686.374C1413.03 686.514 1384.61 684.225 1348.63 681.329C1307.65 678.032 1261.2 674.294 1171.23 674.498Z" fill="white"/>
<path d="M1348.49 619.575C1307.51 616.276 1261.06 612.538 1171.09 612.742C1081.12 612.945 1034.68 616.893 993.728 620.377C957.751 623.435 929.336 625.851 867.503 625.991C805.681 626.131 777.255 623.843 741.277 620.948C700.306 617.649 653.856 613.911 563.88 614.114C473.915 614.318 427.483 618.265 386.527 621.75C350.562 624.808 322.147 627.224 260.325 627.363C198.504 627.503 170.078 625.216 134.099 622.32C93.1165 619.021 46.6664 615.284 -43.2979 615.487L-43.2742 625.956C18.5589 625.816 46.9733 628.103 82.9519 630.999C123.934 634.298 170.373 638.036 260.349 637.832C350.313 637.629 396.746 633.681 437.701 630.197C473.667 627.139 502.082 624.723 563.903 624.583C625.736 624.444 654.151 626.731 690.141 629.627C731.112 632.925 777.562 636.663 867.526 636.46C957.502 636.256 1003.93 632.309 1044.9 628.825C1080.87 625.766 1109.28 623.35 1171.12 623.211C1232.95 623.071 1261.36 625.358 1297.35 628.254C1338.32 631.553 1384.77 635.29 1474.75 635.087L1474.73 624.618C1412.89 624.758 1384.47 622.471 1348.49 619.575Z" fill="white"/>
</g>
<circle cx="205" cy="2079" r="51" fill="#9FB8EA"/>
<circle cx="1079" cy="1046" r="34" fill="#9FB8EA"/>
<circle cx="171" cy="81" r="34" fill="#9FB8EA"/>
<circle cx="1168.5" cy="306.5" r="15.5" stroke="white" stroke-width="6"/>
<path d="M56.9909 249.346C82.5564 264.106 78 295 57.2039 324.071C22.1659 366.649 -22.7674 361.828 -48.3329 347.067C-73.8985 332.307 -64.8097 287.214 -48.0592 262.29C-23.5503 225.823 31.4253 234.586 56.9909 249.346Z" fill="white"/>
<rect x="1219" y="525" width="60" height="27" rx="13.5" fill="#4D60A9"/>
<rect x="1285" y="435" width="100" height="30" rx="15" fill="#4D60A9"/>
<rect x="66" y="485" width="60" height="25" rx="12.5" fill="#4D60A9"/>
<rect x="83" y="499" width="56" height="21" rx="10.5" stroke="white" stroke-width="4"/>
<rect x="25" y="1895" width="60" height="25" rx="12.5" fill="#4D60A9"/>
<rect x="42" y="1909" width="56" height="21" rx="10.5" stroke="white" stroke-width="4"/>
<path d="M208.401 1130C176.793 1176.23 130.908 1211.67 103.181 1260.8C98.89 1268.4 91.733 1282.81 96.6736 1291.75C98.9443 1295.86 104.161 1296.73 108.3 1297.29C125.55 1299.63 142.04 1290.43 156.193 1281.75C190.348 1260.81 219.199 1232.63 243.937 1201.38C259.786 1181.37 274.319 1157.77 293.951 1141.09C301.637 1134.56 305.078 1133.65 304.042 1145.55C300.928 1181.28 275.799 1212.43 255.636 1240.36C239.258 1263.05 214.953 1288.21 207.889 1316.42C205.249 1326.96 212.217 1325.13 220.1 1320.51C242.81 1307.18 263.102 1289.59 285.542 1275.69C291.576 1271.95 300.493 1265.47 308.209 1265.47C315.255 1265.47 299.268 1293.61 298.777 1294.37C283.939 1317.53 265.708 1338.97 248.178 1360.14C243.786 1365.44 239.087 1373.22 233.408 1377" stroke="url(#paint9_linear)" stroke-width="50" stroke-linecap="round" stroke-linejoin="round"/>
<path d="M1083.6 2352.88C1097.48 2324.78 1118.57 2306.88 1145.14 2290.65C1165.44 2278.25 1186.04 2267.06 1205.6 2253.53C1207.32 2252.34 1211.42 2248.54 1211.13 2250.6C1210.9 2252.15 1209.15 2253.05 1208.06 2254.19C1202.51 2260.01 1196.61 2265.5 1190.83 2271.1C1161.47 2299.6 1134.05 2330.15 1106.42 2360.3C1095.51 2372.19 1086.65 2384.04 1080.48 2398.97C1077.29 2406.68 1091.01 2397.3 1091.89 2396.76C1119.14 2380.15 1144.84 2360.37 1170.36 2341.29C1201.35 2318.11 1229.86 2289.12 1266.48 2274.69C1267.44 2274.31 1290.82 2265.86 1291.94 2269.19C1292.77 2271.67 1284.94 2278.06 1284.13 2278.76C1265.79 2294.66 1243.4 2306.31 1222.59 2318.57C1193.61 2335.64 1162.92 2351.39 1138.9 2375.3C1137.41 2376.78 1119.39 2397.17 1120.95 2397.36C1129.18 2398.34 1141.81 2389.81 1148.98 2386.84C1161.52 2381.65 1174.18 2376.81 1186.63 2371.42C1192.63 2368.81 1198.58 2366.11 1204.64 2363.64C1206.14 2363.03 1210.82 2360.1 1212.57 2360.59C1212.88 2360.68 1204.95 2371.32 1203.74 2372.67C1202.81 2373.71 1208.12 2371.52 1208.72 2372.73C1209.61 2374.5 1208.96 2377.78 1208.96 2379.78" stroke="url(#paint10_linear)" stroke-width="40" stroke-linecap="round" stroke-linejoin="round"/>
<path d="M1155.79 814.834C1160.85 815.541 1164.71 817.889 1168.58 821.171C1171.54 823.679 1174.33 826.293 1177.43 828.629C1177.7 828.833 1178.5 829.274 1178.17 829.334C1177.92 829.379 1177.69 829.153 1177.46 829.044C1176.27 828.482 1175.12 827.85 1173.95 827.243C1168.03 824.159 1161.9 821.48 1155.81 818.747C1153.41 817.669 1151.12 816.905 1148.49 816.715C1147.14 816.617 1149.29 818.26 1149.42 818.368C1153.39 821.736 1157.77 824.7 1162.04 827.673C1167.21 831.283 1173.16 834.211 1177.28 839.141C1177.38 839.27 1179.89 842.457 1179.43 842.8C1179.09 843.055 1177.7 842.171 1177.55 842.082C1174.15 840.058 1171.2 837.189 1168.23 834.595C1164.1 830.983 1160.09 827.039 1155.15 824.546C1154.85 824.392 1150.77 822.647 1150.82 822.898C1151.09 824.223 1153.06 825.742 1153.89 826.7C1155.33 828.374 1156.73 830.087 1158.2 831.737C1158.92 832.533 1159.64 833.316 1160.33 834.128C1160.5 834.329 1161.2 834.903 1161.21 835.198C1161.21 835.252 1159.16 834.569 1158.89 834.451C1158.68 834.361 1159.29 835.07 1159.13 835.226C1158.91 835.454 1158.36 835.522 1158.05 835.625" stroke="url(#paint11_linear)" stroke-width="40" stroke-linecap="round" stroke-linejoin="round"/>
<rect x="1201" y="536" width="53" height="22" rx="11" stroke="white" stroke-width="4"/>
<rect x="1405" y="2350" width="60" height="27" rx="13.5" fill="#4D60A9"/>
<rect x="1387" y="2361" width="53" height="22" rx="11" stroke="white" stroke-width="4"/>
<circle cx="1097" cy="2113" r="19" stroke="white" stroke-width="8"/>
<circle cx="107.5" cy="1540.5" r="18.5" stroke="white" stroke-width="8"/>
<circle cx="255.5" cy="2057.5" r="19.5" stroke="white" stroke-width="6"/>
<rect x="832" y="180" width="100" height="30" rx="15" fill="#4D60A9"/>
<rect x="817" y="195" width="96" height="26" rx="13" stroke="white" stroke-width="4"/>
<path d="M1086.3 1409.41C1093 1403.65 1098.29 1399.11 1112.64 1407.22C1119.54 1411.11 1125.1 1412.58 1129.73 1412.58C1137.84 1412.58 1143.09 1408.07 1147.63 1404.17C1149.25 1402.78 1149.46 1400.31 1148.1 1398.65C1146.74 1397 1144.32 1396.78 1142.7 1398.18C1136 1403.93 1130.71 1408.48 1116.35 1400.36C1097.39 1389.65 1088.5 1397.28 1081.37 1403.41C1079.75 1404.81 1079.54 1407.27 1080.9 1408.93C1082.26 1410.58 1084.68 1410.8 1086.3 1409.41ZM1142.7 1417.75C1136 1423.51 1130.71 1428.05 1116.35 1419.94C1097.39 1409.23 1088.5 1416.86 1081.37 1422.99C1079.75 1424.38 1079.54 1426.85 1080.9 1428.5C1082.26 1430.16 1084.68 1430.37 1086.3 1428.98C1093 1423.23 1098.29 1418.68 1112.64 1426.79C1119.54 1430.69 1125.1 1432.16 1129.73 1432.16C1137.84 1432.16 1143.09 1427.65 1147.63 1423.74C1149.25 1422.35 1149.46 1419.88 1148.1 1418.23C1146.74 1416.57 1144.32 1416.36 1142.7 1417.75ZM1142.7 1437.33C1136 1443.08 1130.71 1447.63 1116.35 1439.52C1097.39 1428.8 1088.5 1436.43 1081.37 1442.56C1079.75 1443.96 1079.54 1446.43 1080.9 1448.08C1082.26 1449.73 1084.68 1449.95 1086.3 1448.56C1093 1442.8 1098.29 1438.26 1112.64 1446.37C1119.54 1450.26 1125.1 1451.73 1129.73 1451.73C1137.84 1451.73 1143.09 1447.22 1147.63 1443.32C1149.25 1441.93 1149.46 1439.46 1148.1 1437.8C1146.74 1436.15 1144.32 1435.94 1142.7 1437.33Z" fill="white"/>
<path d="M-25.6989 967.406C-19.0013 961.654 -13.7105 957.107 0.643047 965.218C7.53845 969.113 13.1006 970.584 17.7313 970.583C25.8388 970.583 31.0912 966.073 35.6345 962.169C37.2545 960.778 37.463 958.309 36.0999 956.653C34.7367 954.998 32.3187 954.784 30.6987 956.177C24.0019 961.931 18.7119 966.477 4.35371 958.365C-14.6129 947.65 -23.4962 955.283 -30.6347 961.414C-32.2539 962.805 -32.4632 965.275 -31.1 966.93C-29.7377 968.584 -27.3196 968.798 -25.6989 967.406ZM30.6987 975.753C24.0019 981.506 18.7119 986.052 4.35371 977.941C-14.6129 967.226 -23.4962 974.858 -30.6347 980.99C-32.2539 982.382 -32.4632 984.851 -31.1 986.504C-29.7377 988.16 -27.3188 988.374 -25.6989 986.981C-19.0013 981.229 -13.7105 976.683 0.643047 984.792C7.53845 988.688 13.1006 990.159 17.7313 990.159C25.8388 990.159 31.0912 985.648 35.6345 981.745C37.2545 980.353 37.463 977.883 36.0999 976.23C34.7375 974.573 32.3194 974.36 30.6987 975.753ZM30.6987 995.327C24.0019 1001.08 18.7119 1005.63 4.35371 997.515C-14.6129 986.8 -23.4962 994.432 -30.6347 1000.56C-32.2539 1001.96 -32.4632 1004.43 -31.1 1006.08C-29.7377 1007.73 -27.3188 1007.95 -25.6989 1006.56C-19.0013 1000.8 -13.7113 996.259 0.643047 1004.37C7.53845 1008.26 13.1006 1009.73 17.7313 1009.73C25.8388 1009.73 31.0912 1005.22 35.6345 1001.32C37.2545 999.929 37.463 997.458 36.0999 995.803C34.7367 994.149 32.3194 993.936 30.6987 995.327Z" fill="white"/>
<path d="M38.2189 2258.79C46.9549 2251.29 53.8559 2245.36 72.5779 2255.94C81.5719 2261.02 88.8269 2262.94 94.8669 2262.93C105.442 2262.93 112.293 2257.05 118.219 2251.96C120.332 2250.15 120.604 2246.92 118.826 2244.77C117.048 2242.61 113.894 2242.33 111.781 2244.14C103.046 2251.65 96.1459 2257.58 77.4179 2247C52.6789 2233.02 41.0919 2242.98 31.7809 2250.97C29.6689 2252.79 29.3959 2256.01 31.1739 2258.17C32.9509 2260.33 36.1049 2260.61 38.2189 2258.79ZM111.781 2269.68C103.046 2277.18 96.1459 2283.11 77.4179 2272.53C52.6789 2258.56 41.0919 2268.51 31.7809 2276.51C29.6689 2278.32 29.3959 2281.55 31.1739 2283.7C32.9509 2285.86 36.1059 2286.14 38.2189 2284.32C46.9549 2276.82 53.8559 2270.89 72.5779 2281.47C81.5719 2286.55 88.8269 2288.47 94.8669 2288.47C105.442 2288.47 112.293 2282.58 118.219 2277.49C120.332 2275.68 120.604 2272.46 118.826 2270.3C117.049 2268.14 113.895 2267.86 111.781 2269.68ZM111.781 2295.21C103.046 2302.71 96.1459 2308.64 77.4179 2298.06C52.6789 2284.09 41.0919 2294.04 31.7809 2302.04C29.6689 2303.86 29.3959 2307.08 31.1739 2309.24C32.9509 2311.39 36.1059 2311.67 38.2189 2309.86C46.9549 2302.35 53.8549 2296.42 72.5779 2307C81.5719 2312.08 88.8269 2314 94.8669 2314C105.442 2314 112.293 2308.12 118.219 2303.03C120.332 2301.21 120.604 2297.99 118.826 2295.83C117.048 2293.67 113.895 2293.4 111.781 2295.21Z" fill="white"/>
<path d="M1385 1169.6C1361.61 1152.99 1343.67 1128.87 1318.81 1114.3C1314.96 1112.04 1307.67 1108.28 1303.14 1110.88C1301.07 1112.07 1300.62 1114.81 1300.34 1116.99C1299.15 1126.06 1303.81 1134.72 1308.2 1142.16C1318.8 1160.11 1333.06 1175.28 1348.87 1188.28C1359 1196.61 1370.94 1204.25 1379.39 1214.56C1382.69 1218.6 1383.15 1220.41 1377.13 1219.87C1359.05 1218.23 1343.29 1205.02 1329.15 1194.43C1317.67 1185.82 1304.93 1173.05 1290.66 1169.33C1285.33 1167.94 1286.25 1171.61 1288.59 1175.75C1295.33 1187.69 1304.24 1198.35 1311.27 1210.15C1313.16 1213.32 1316.44 1218 1316.44 1222.06C1316.44 1225.76 1302.2 1217.36 1301.81 1217.1C1290.1 1209.3 1279.25 1199.72 1268.53 1190.51C1265.85 1188.2 1261.91 1185.73 1260 1182.74" stroke="url(#paint12_linear)" stroke-width="30" stroke-linecap="round" stroke-linejoin="round"/>
<circle cx="204.5" cy="59.5" r="22.5" stroke="white" stroke-width="6"/>
<circle cx="1346" cy="1449" r="8" fill="black"/>
<path d="M1473.14 164.773C1495.24 194.286 1471.46 216.01 1449.45 235.325C1402.79 264.285 1369.92 254.447 1342.55 223.277C1323.16 201.181 1334.12 160.404 1369.92 143.398C1409.44 124.618 1453.75 142.677 1473.14 164.773Z" fill="white"/>
<path d="M294.864 921.453C303.817 933.413 294.182 942.217 285.265 950.044C266.355 961.78 253.032 957.793 241.944 945.161C234.083 936.207 238.527 919.682 253.032 912.791C269.05 905.18 287.004 912.498 294.864 921.453Z" fill="white"/>
<circle cx="1182" cy="168" r="8" fill="black"/>
<circle cx="130" cy="807" r="8" fill="black"/>
<circle cx="1383.5" cy="873.5" r="11.5" stroke="white" stroke-width="4"/>
<circle cx="558" cy="52" r="8" fill="black"/>
<defs>
<linearGradient id="paint0_linear" x1="720" y1="3.05176e-05" x2="720" y2="2638" gradientUnits="userSpaceOnUse">
<stop stop-color="#455BA5"/>
<stop offset="0.494792" stop-color="#FBB0FB"/>
<stop offset="1" stop-color="#435BA5"/>
</linearGradient>
<linearGradient id="paint1_linear" x1="696" y1="890" x2="696" y2="1750" gradientUnits="userSpaceOnUse">
<stop stop-color="#984CA5" stop-opacity="0.16"/>
<stop offset="1" stop-color="#EE5172" stop-opacity="0.6"/>
</linearGradient>
<linearGradient id="paint2_linear" x1="444.5" y1="258.5" x2="1282" y2="1860.5" gradientUnits="userSpaceOnUse">
<stop stop-color="#F8DC41"/>
<stop offset="0.245941" stop-color="#F9C53D"/>
<stop offset="0.86732" stop-color="#F6A439"/>
</linearGradient>
<linearGradient id="paint3_linear" x1="870.612" y1="972.204" x2="1024.49" y2="1737.35" gradientUnits="userSpaceOnUse">
<stop stop-color="#F8DC41"/>
<stop offset="0.245941" stop-color="#F9C53D"/>
<stop offset="0.86732" stop-color="#F6A439"/>
</linearGradient>
<linearGradient id="paint4_linear" x1="553.317" y1="2613.12" x2="850.55" y2="1598.04" gradientUnits="userSpaceOnUse">
<stop stop-color="#F6A439"/>
<stop offset="1" stop-color="#F8DC41"/>
</linearGradient>
<linearGradient id="paint5_linear" x1="671.352" y1="2356.87" x2="59.9455" y2="2207.7" gradientUnits="userSpaceOnUse">
<stop stop-color="#D85278"/>
<stop offset="1" stop-color="#8F558F"/>
</linearGradient>
<linearGradient id="paint6_linear" x1="1264" y1="-36" x2="1264" y2="345" gradientUnits="userSpaceOnUse">
<stop stop-color="#EE5271"/>
<stop offset="1" stop-color="#804F97"/>
</linearGradient>
<linearGradient id="paint7_linear" x1="1538.5" y1="1019" x2="1538.5" y2="1615" gradientUnits="userSpaceOnUse">
<stop stop-color="#A56180"/>
<stop offset="1" stop-color="#E86668"/>
</linearGradient>
<linearGradient id="paint8_linear" x1="-46.0517" y1="609.635" x2="138.494" y2="702.141" gradientUnits="userSpaceOnUse">
<stop stop-color="#804F97"/>
<stop offset="1" stop-color="#EE5471"/>
</linearGradient>
<linearGradient id="paint9_linear" x1="228.138" y1="1130" x2="202.59" y2="1377.01" gradientUnits="userSpaceOnUse">
<stop stop-color="#FED0FE"/>
<stop offset="1" stop-color="white"/>
</linearGradient>
<linearGradient id="paint10_linear" x1="1186" y1="2250" x2="1186" y2="2402" gradientUnits="userSpaceOnUse">
<stop stop-color="white"/>
<stop offset="1" stop-color="#FED0FE"/>
</linearGradient>
<linearGradient id="paint11_linear" x1="1176.97" y1="825.413" x2="1153.44" y2="833.209" gradientUnits="userSpaceOnUse">
<stop stop-color="white"/>
<stop offset="1" stop-color="#FED0FE"/>
</linearGradient>
<linearGradient id="paint12_linear" x1="1385" y1="1179.97" x2="1259.9" y2="1167.52" gradientUnits="userSpaceOnUse">
<stop stop-color="#FED0FE"/>
<stop offset="1" stop-color="white"/>
</linearGradient>
<clipPath id="clip0">
<rect width="1568.26" height="181.27" fill="white" transform="translate(-9 2428.67) rotate(-0.170491)"/>
</clipPath>
<clipPath id="clip1">
<rect width="1518" height="178.67" fill="white" transform="translate(-43.3687 584.08) rotate(-0.12952)"/>
</clipPath>
</defs>
</svg>
