<svg width="88" height="83" viewBox="0 0 88 83" fill="none" xmlns="http://www.w3.org/2000/svg">
<path fill-rule="evenodd" clip-rule="evenodd" d="M55.9232 44.8203L47.0836 41.7977C47.0836 41.7856 47.0836 41.7735 47.0956 41.7615L55.4448 44.1916L54.8586 43.4178L47.275 40.7338C47.275 40.7217 47.275 40.7096 47.275 40.6975L54.4639 42.91L53.7821 42.0153L47.4425 39.6577C47.4425 39.6456 47.4425 39.6335 47.4425 39.6335L53.4831 41.6285L52.9089 40.8668L37.4546 35.5349L40.1818 40.6975L56.8084 46.0173L55.9232 44.8203Z" fill="#009FDF"/>
<path fill-rule="evenodd" clip-rule="evenodd" d="M49.0571 54.1542L49.0093 54.0091L58.1479 60.0785L57.8369 58.809L48.16 51.7724L48.1002 51.6152L57.6097 57.8901L57.3106 56.6811L47.239 49.3422L47.1911 49.2092L57.1192 55.9073L56.8082 54.6378L42.6816 45.4128L47.2988 54.1542L58.6384 62.0613L58.3393 60.816L49.0571 54.1542Z" fill="#009FDF"/>
<path fill-rule="evenodd" clip-rule="evenodd" d="M61.2939 28.0026L61.7484 27.6157L61.2939 27.2046L52.215 26.9628L52.1552 26.9023L60.7795 26.6726L59.8585 25.8021L50.5763 25.5603L50.5404 25.5361L59.368 25.3185L58.5427 24.448L39.7631 24.1699H39.7152L36.5095 26.9386L41.3061 26.8298L44.0692 28.8489L41.3061 30.868L58.5427 30.5295L59.368 29.937L50.5643 29.6348L50.6122 29.5985L59.8585 29.3567L60.7795 28.5708L52.1193 28.3169L52.1911 28.2565L61.2939 28.0026Z" fill="#009FDF"/>
<path fill-rule="evenodd" clip-rule="evenodd" d="M51.1147 48.8464L51.1267 48.8102L59.9783 52.5582L59.6074 51.8086L51.4497 47.855L51.4616 47.8187L59.2845 51.1678L58.8658 50.3214L51.7846 46.8515L51.7966 46.8273L58.6027 49.7895L58.1362 48.8706L40.1938 40.6975L42.6819 45.4128L45.0861 46.9724L60.9591 54.541L60.3371 53.2957L51.1147 48.8464Z" fill="#182F7B"/>
<path fill-rule="evenodd" clip-rule="evenodd" d="M73.5185 20.2649L74.0209 19.8417L73.5185 19.3702L61.1024 19.0316L61.0307 18.9591L72.7889 18.6447L71.7721 17.6775L59.1288 17.3632L59.0331 17.2906L70.8152 16.9884L69.7865 16.0211L49.1409 15.7068L45.0142 18.7657H45.0022L52.1432 18.6206L56.0068 21.4376L52.3825 24.0854L69.7865 23.626L70.8152 22.7434L57.8489 22.3807L57.9326 22.3081L71.7721 21.9333L72.7889 21.0507L59.7867 20.7243L59.9182 20.6155L73.5185 20.2649Z" fill="#182F7B"/>
<path fill-rule="evenodd" clip-rule="evenodd" d="M20.0863 12.4908L20.1222 12.4787L24.0576 10.4354L18.651 10.1211V10.0485L25.5288 9.67374L27.036 8.89995L18.651 8.40425V8.3438L28.9857 7.88436L31.4737 6.60278L10.6128 6.63905L20.0863 12.4908Z" fill="#182F7B"/>
<path fill-rule="evenodd" clip-rule="evenodd" d="M0.074707 13.3732L5.07463 12.1521L3.36413 10.2539L0.074707 13.3732Z" fill="#F7941E"/>
<path fill-rule="evenodd" clip-rule="evenodd" d="M51.9399 0.871826L80.54 1.42798L82.071 2.80629L61.4254 3.45917L54.3322 3.30199L19.0815 34.3984L16.4261 32.5849L15.6366 26.9266C15.2538 24.2425 13.6151 21.3166 11.785 18.7777C10.1462 16.5047 8.36398 14.546 7.17978 13.3249C7.17978 13.3128 7.15586 13.3007 7.15586 13.3007L3.67505 9.96379C5.03867 8.60966 7.75394 6.86865 10.6008 6.62684L20.0863 12.4786L20.1222 12.4665L29.3206 18.1127L25.0982 23.5171L51.9399 0.871826ZM7.96924 10.7255L9.75151 9.66153L7.06017 10.3144L7.96924 10.7255Z" fill="#F7941E"/>
<path fill-rule="evenodd" clip-rule="evenodd" d="M51.4735 33.0202L50.4687 32.1376L45.6602 32.0529L45.5525 32.0046L50.1936 31.8958L49.0692 30.9769L34.9546 30.7834V30.7955L37.323 35.269H37.3349L49.0692 35.3657L50.1936 34.4831L45.5525 34.3501L45.6602 34.3017L50.4687 34.1688L51.4735 33.3224L46.8563 33.1894V33.1411L51.4735 33.0202Z" fill="#F7941E"/>
<path fill-rule="evenodd" clip-rule="evenodd" d="M73.8177 11.6321L72.0952 12.8775L83.3869 12.5752L84.918 11.2573L72.8488 10.9309L73.8177 11.6321Z" fill="#E45620"/>
<path fill-rule="evenodd" clip-rule="evenodd" d="M68.7458 15.3077L80.5399 14.9934L82.071 13.6876L71.3774 13.3975L68.7458 15.3077Z" fill="#E45620"/>
<path fill-rule="evenodd" clip-rule="evenodd" d="M72.2267 10.4836L86.2696 10.1088L87.7528 8.85142L69.2842 8.35571L72.2267 10.4836Z" fill="#E45620"/>
<path fill-rule="evenodd" clip-rule="evenodd" d="M3.68709 9.97583L3.36413 10.2539L5.07463 12.1521L0.074707 13.3732L7.20379 13.337L3.68709 9.97583Z" fill="#E45620"/>
<path fill-rule="evenodd" clip-rule="evenodd" d="M42.0119 27.3498L41.988 27.3256L42.0119 27.3498Z" fill="#E45620"/>
<path fill-rule="evenodd" clip-rule="evenodd" d="M49.0213 14.1108L69.2722 13.5546L69.4397 13.4216L49.7988 12.938L50.5763 12.805L70.4803 12.2247L70.6956 12.1038L51.3538 11.6081L52.1313 11.4509L70.6956 10.9189L70.4803 10.8101L52.9088 10.2781L53.6743 10.1451L69.4397 9.61317L69.2722 9.48017L54.4518 8.96029L55.2293 8.83938L68.0521 8.4404L67.8607 8.27113L56.0068 7.67871L56.7843 7.53362L67.8368 7.30391L69.033 8.16232L87.7528 7.66662L86.2696 6.40922L65.6479 5.85306V5.76843L84.9179 5.24854L83.3868 3.94278L61.4254 3.47126L54.3322 3.32617L19.0935 34.4226L47.2988 54.1541L34.9545 30.7955V30.7834L34.8588 30.6141L41.3181 30.3965L41.3779 30.3361L34.6555 30.2152L34.5598 30.0338L41.9879 29.8162L42.0477 29.7678L34.3206 29.5744L34.2488 29.4293L42.7056 29.1875L42.7893 29.1391L33.9737 28.9094L33.9139 28.8127L42.7893 28.5588L42.7056 28.5104L34.1292 28.2565L34.3206 28.1719L42.0477 27.9422L41.9879 27.8817L34.8708 27.6278L35.0622 27.5432L41.3779 27.3739L41.3181 27.2893L35.6124 27.0112L35.8756 26.9387H36.5095L39.7152 24.17L37.9329 24.1579L38.4593 24.0612L52.1552 23.6017L52.2509 23.5171L38.9736 23.2753L39.4999 23.1907L53.1002 22.7917L53.1839 22.7312L40.0143 22.3927L40.5406 22.3081L54.1408 21.9091L54.2246 21.8486L41.0669 21.5101L41.5812 21.4013L54.2246 21.0386L54.1408 20.9781L42.1075 20.6154L42.6219 20.5308L53.1839 20.1681L53.1002 20.0834L43.1482 19.7328L43.6625 19.6482L52.2509 19.3701L52.1552 19.2734L44.1888 18.8623L44.5596 18.8019L45.1099 18.7656H45.0022H45.0142H44.7032H45.0142L49.1409 15.7067H49.2366L46.7008 15.5495L47.4783 15.4045L67.8607 14.7637L68.0521 14.6065L48.2438 14.2438L49.0213 14.1108Z" fill="#E45620"/>
<path fill-rule="evenodd" clip-rule="evenodd" d="M7.06033 10.3023C7.06033 10.3023 10.7086 7.60612 10.9119 7.52148L5.09863 10.1572L7.06033 10.3023Z" fill="#E45620"/>
<path fill-rule="evenodd" clip-rule="evenodd" d="M25.0863 73.8615V73.9341L23.4356 73.922H21.2466L21.2586 69.6178L17.395 69.6057L17.3831 74.1638L17.3711 77.6095L17.3591 81.4059V82.3127L21.2108 82.3248L21.2227 81.418L21.2347 77.803V77.3073L25.0743 77.3315V77.9964L25.0624 81.4301V82.3369L28.914 82.349L28.926 81.4422L28.9379 78.202L28.9499 73.7043L28.9618 69.642L25.0983 69.6299L25.0863 73.8615Z" fill="#182F7B"/>
<path fill-rule="evenodd" clip-rule="evenodd" d="M38.6747 73.3295L38.6627 77.138C38.6627 77.8634 38.4235 78.3591 38.0407 78.6735C37.7058 78.9516 37.2752 79.0966 36.7848 79.0966C36.2226 79.0966 35.7321 78.9032 35.3972 78.5405C35.0982 78.214 34.9068 77.7667 34.9068 77.1259L34.9188 73.4746L34.9307 69.6661L31.0671 69.6541L31.0552 73.6318L31.0432 77.1017C31.0432 77.537 31.0791 77.936 31.1389 78.3229C31.3303 79.5077 31.8446 80.4628 32.67 81.1883C32.7896 81.2971 32.9212 81.3696 33.0528 81.4663C34.0814 82.228 35.3135 82.627 36.7848 82.6391C38.256 82.6391 39.4881 82.2522 40.5048 81.4905C40.6244 81.3938 40.768 81.3213 40.8876 81.2125C41.5813 80.6079 42.0239 79.8221 42.2871 78.8911C42.4306 78.3591 42.5383 77.7788 42.5383 77.138L42.5502 73.1844L42.5622 69.6903L38.6986 69.6782L38.6747 73.3295Z" fill="#182F7B"/>
<path fill-rule="evenodd" clip-rule="evenodd" d="M51.2104 74.2362L48.4712 69.7023L44.6436 69.6902V73.0997L44.6196 79.0119L44.6077 81.5025V82.3972L48.3397 82.4093L48.3516 81.5146V79.2053L48.3636 75.3001L48.9617 76.2915L50.2057 78.3348L52.287 78.3469L54.0812 75.3122L54.0573 81.5267V82.4334L57.7534 82.4455V81.5387L57.7893 69.7385L53.9855 69.7265L51.2104 74.2362Z" fill="#182F7B"/>
<path fill-rule="evenodd" clip-rule="evenodd" d="M61.3896 71.4313C62.6695 70.1497 64.2843 69.4969 66.2221 69.509C68.1598 69.521 69.7507 70.1739 71.0426 71.4555C72.3105 72.7492 72.9445 74.2847 72.9325 76.1224C72.9325 77.9601 72.2985 79.5198 71.0186 80.8014C70.7316 81.0915 70.4206 81.3333 70.0976 81.5631C68.9852 82.3368 67.6933 82.7116 66.1981 82.7116C64.7029 82.6995 63.4111 82.3006 62.3106 81.5389C61.9757 81.3092 61.6647 81.0553 61.3657 80.753C60.0978 79.4593 59.4638 77.8997 59.4758 76.0861C59.4758 74.2605 60.1097 72.7129 61.3896 71.4313ZM66.1862 79.1692C66.9996 79.1692 67.6574 78.879 68.1838 78.3228C68.7101 77.7425 68.9732 77.0171 68.9852 76.1345C68.9971 75.2519 68.722 74.5265 68.2077 73.9582C67.6933 73.3658 67.0354 73.0756 66.2221 73.0756C65.4087 73.0635 64.7508 73.3537 64.2245 73.934C63.6982 74.4902 63.4231 75.2156 63.4231 76.1103C63.4111 77.005 63.6862 77.7304 64.2006 78.3108C64.7149 78.879 65.3728 79.1692 66.1862 79.1692Z" fill="#182F7B"/>
</svg>
