<svg width="84" height="35" viewBox="0 0 84 35" fill="none" xmlns="http://www.w3.org/2000/svg">
<path fill-rule="evenodd" clip-rule="evenodd" d="M20.9226 22.2171V19.2741V18.8699H23.8262V19.4191V22.2171V22.9528H26.7392V22.2171V19.5746V15.9165V12.6004H23.8262V16.0512V16.103H22.5832H20.9226V12.6004H18.019V16.3207V19.1186V22.2171V22.9528H20.9226V22.2171Z" fill="white"/>
<path fill-rule="evenodd" clip-rule="evenodd" d="M31.237 12.6004H28.324V15.844V18.6626C28.324 19.015 28.3524 19.3466 28.3999 19.6575C28.5517 20.6212 28.9313 21.3984 29.5575 21.9891C29.6524 22.072 29.7473 22.1342 29.8422 22.2171C30.6203 22.8388 31.5407 23.1601 32.6509 23.1601C33.7611 23.1601 34.691 22.8388 35.4501 22.2171C35.545 22.1445 35.6493 22.0824 35.7347 21.9891C36.2566 21.4917 36.5887 20.8492 36.7785 20.0927C36.8924 19.6575 36.9588 19.1912 36.9588 18.6626V15.4398V12.6004H34.0457V15.5745V18.673C34.0457 19.2637 33.8654 19.6678 33.5808 19.9269C33.3341 20.1549 33.0114 20.2689 32.6319 20.2689C32.2049 20.2689 31.8348 20.1134 31.5786 19.8233C31.3509 19.5642 31.2086 19.1912 31.2086 18.673V15.6989V12.6004H31.237Z" fill="white"/>
<path fill-rule="evenodd" clip-rule="evenodd" d="M45.6884 22.9528H48.4781V22.2171V12.6004H45.6125L43.5249 16.2792L41.4564 12.6004H38.5718V15.3673V20.186V22.2171V22.9528H41.3805V22.2171V20.3414V17.16L41.8359 17.958L42.7753 19.6264H44.3505L45.6884 17.16V22.2171V22.9528Z" fill="white"/>
<path fill-rule="evenodd" clip-rule="evenodd" d="M49.7593 17.7818C49.7593 16.2896 50.2337 15.0253 51.1921 13.9787C52.1505 12.9217 53.3745 12.3932 54.8358 12.4036C56.2971 12.4036 57.5021 12.9424 58.4605 13.9891C59.4189 15.0461 59.8933 16.3 59.8933 17.7922C59.8933 19.2844 59.4189 20.5591 58.4605 21.6057C58.2423 21.844 58.0145 22.0409 57.7678 22.2275C56.9423 22.8492 55.9649 23.1705 54.8358 23.1705C53.7066 23.1705 52.7388 22.8492 51.9037 22.2275C51.657 22.0409 51.4103 21.8233 51.1921 21.585C50.2337 20.528 49.7593 19.2637 49.7593 17.7818ZM56.335 19.5746C56.7335 19.0979 56.9328 18.5072 56.9328 17.7818C56.9328 17.0564 56.7335 16.4658 56.335 16.0098C55.946 15.5435 55.4431 15.3051 54.8358 15.3051C54.2285 15.3051 53.7256 15.5331 53.3366 16.0098C52.938 16.4658 52.7388 17.0564 52.7388 17.7818C52.7388 18.5072 52.9475 19.0979 53.3366 19.5746C53.7256 20.0306 54.2285 20.2689 54.8358 20.2689C55.4431 20.2689 55.946 20.0306 56.335 19.5746Z" fill="white"/>
<path fill-rule="evenodd" clip-rule="evenodd" d="M14.2616 16.4761L0.332031 17.1186V17.6264V18.1341L14.2616 18.7766V17.6264V16.4761Z" fill="#F7941E"/>
<path fill-rule="evenodd" clip-rule="evenodd" d="M81.1671 20.0409L83.7196 17.6264L81.1671 15.2119L66.0704 0.973419L27.9539 1.54337L26.616 2.3413L69.6572 5.15998L69.8374 5.32578L19.4519 6.69367L18.114 7.4916L74.9329 10.1341L75.1132 10.2895L61.1552 12.331L80.2087 15.1082L80.3795 15.274L61.1932 17.6264L80.3795 19.9787L80.2087 20.1445L61.1552 22.9218L75.1132 24.9632L74.9329 25.1187L18.114 27.7612L19.4519 28.5591L69.8374 29.927L69.6572 30.0928L26.616 32.9115L27.9539 33.7094L66.0704 34.2793L81.1671 20.0409Z" fill="#F7941E"/>
</svg>
