<svg width="36" height="36" viewBox="0 0 36 36" fill="none" xmlns="http://www.w3.org/2000/svg">
<path fill-rule="evenodd" clip-rule="evenodd" d="M18.1158 10.8865C14.1178 10.8865 10.8868 14.1165 10.8868 18.1155C10.8868 22.1135 14.1178 25.3435 18.1158 25.3435C22.1138 25.3435 25.3448 22.1135 25.3448 18.1155C25.3448 14.1165 22.1138 10.8865 18.1158 10.8865ZM29.6938 9.15954C28.2548 9.15954 27.1028 8.00854 27.1028 6.56854C27.1028 5.12954 28.2548 3.97754 29.6938 3.97754C31.1338 3.97754 32.2848 5.12954 32.2848 6.56854C32.2848 7.97554 31.1338 9.15954 29.6938 9.15954ZM18.1158 29.2775C11.9748 29.2775 6.98576 24.2875 6.98576 18.1465C6.98576 12.0055 11.9748 7.01654 18.1158 7.01654C24.2578 7.01654 29.2468 11.9735 29.2468 18.1155C29.2468 24.2875 24.2578 29.2775 18.1158 29.2775ZM35.7708 9.35154C35.6758 7.24054 35.3228 6.08854 35.0358 5.32154C34.6518 4.29754 34.1718 3.59454 33.4038 2.82654C32.6368 2.05854 31.9328 1.61154 30.9098 1.19554C30.1418 0.907543 28.9908 0.555543 26.8798 0.459543C24.6088 0.364543 23.9048 0.331543 18.1158 0.331543H16.1648C12.1358 0.331543 11.3358 0.364543 9.35176 0.459543C7.24176 0.555543 6.09076 0.907543 5.32276 1.19554C4.39476 1.54754 3.53176 2.12254 2.82776 2.82654C2.05976 3.59454 1.58076 4.29754 1.19676 5.32154C0.908764 6.08854 0.556764 7.24054 0.460764 9.35154C0.364764 11.6215 0.332764 12.3255 0.332764 18.1155C0.332764 23.9045 0.364764 24.6075 0.460764 26.8785C0.556764 28.9895 0.908764 30.1405 1.19676 30.9075C1.54876 31.8355 2.09276 32.6985 2.82776 33.4035C3.53176 34.1065 4.39476 34.6825 5.32276 35.0335C6.09076 35.3225 7.24176 35.6735 9.35176 35.7695C11.6238 35.8655 12.3268 35.8985 18.1158 35.8985C23.9048 35.8985 24.6088 35.8655 26.8798 35.7695C28.9908 35.6735 30.1418 35.3225 30.9098 35.0335C31.9328 34.6505 32.6368 34.1705 33.4038 33.4035C34.1398 32.6985 34.6828 31.8675 35.0358 30.9075C35.3228 30.1405 35.6758 28.9895 35.7708 26.8785C35.8668 24.5755 35.8988 23.9045 35.8988 18.1155C35.8988 12.3255 35.8668 11.6545 35.7708 9.35154Z" fill="url(#paint0_radial)"/>
<defs>
<radialGradient id="paint0_radial" cx="0" cy="0" r="1" gradientUnits="userSpaceOnUse" gradientTransform="translate(32.6274 2.42017) rotate(133.969) scale(46.5161)">
<stop stop-color="#FFA246"/>
<stop offset="0.519509" stop-color="#FF0B63"/>
<stop offset="1" stop-color="#4A00FF"/>
</radialGradient>
</defs>
</svg>
