<svg width="64" height="87" viewBox="0 0 64 87" fill="none" xmlns="http://www.w3.org/2000/svg">
<path fill-rule="evenodd" clip-rule="evenodd" d="M19.299 28.585H44.5166V19.5428C44.5166 12.6427 38.8072 6.93237 31.9074 6.93237C25.0084 6.93237 19.299 12.6427 19.299 19.5428V28.585ZM60.6944 32.6304L63.3106 70.2244C64.0239 79.2667 56.8869 86.8811 47.609 86.8811H15.9677C6.68976 86.8811 -0.446317 79.2667 0.266087 70.2244L2.88317 32.6304C3.12126 30.4882 5.02502 28.585 7.16501 28.585H13.1134V19.5428C13.1134 9.31176 21.6771 0.983887 31.9074 0.983887C42.1367 0.983887 50.4641 9.31176 50.4641 19.5428V28.585H56.4116C58.7906 28.585 60.4563 30.4882 60.6944 32.6304Z" fill="#F7941E"/>
</svg>
