<svg width="19" height="22" viewBox="0 0 19 22" fill="none" xmlns="http://www.w3.org/2000/svg">
<path fill-rule="evenodd" clip-rule="evenodd" d="M6.08936 6.90599H13.0545V4.70268C13.0545 3.02135 11.4776 1.62991 9.57183 1.62991C7.66632 1.62991 6.08936 3.02135 6.08936 4.70268V6.90599ZM17.5229 7.89171L18.2455 17.0522C18.4425 19.2555 16.4713 21.1109 13.9087 21.1109H5.16923C2.60664 21.1109 0.635626 19.2555 0.832394 17.0522L1.55524 7.89171C1.621 7.36973 2.14683 6.90599 2.7379 6.90599H4.38088V4.70268C4.38088 2.20969 6.74619 0.18045 9.57183 0.18045C12.3972 0.18045 14.6973 2.20969 14.6973 4.70268V6.90599H16.34C16.9971 6.90599 17.4571 7.36973 17.5229 7.89171Z" fill="white"/>
</svg>
