<svg width="21" height="19" viewBox="0 0 21 19" fill="none" xmlns="http://www.w3.org/2000/svg">
<path fill-rule="evenodd" clip-rule="evenodd" d="M18.3478 13.7398L12.5922 11.4915C12.4802 11.4466 12.4802 11.3117 12.5697 11.2668C13.8687 10.4574 14.5182 9.22084 14.7645 8.07401C15.3692 8.11895 15.7946 7.73681 16.0187 6.88244C16.2425 5.71324 16.2875 4.88144 15.2797 4.94896C15.7946 0.946965 13.3313 3.0828 13.8014 1.35168C14.2718 -0.37965 5.08963 -1.34628 6.07499 4.94896C5.24643 4.76897 4.88807 5.24121 5.17939 6.59019C5.35846 7.71423 5.82886 8.16411 6.50062 8.05164C6.72446 9.44556 7.57551 10.5698 8.67289 11.2442C8.76264 11.2892 8.74015 11.4466 8.65061 11.4689L2.89487 13.7174C1.75272 14.1669 0.991211 15.3137 0.991211 16.5726V17.8766C0.991211 18.3938 1.39435 18.8209 1.88702 18.8209H10.6213H19.3333C19.8258 18.8209 20.2289 18.3938 20.2289 17.8766V16.5726C20.2514 15.3137 19.4899 14.1895 18.3478 13.7398Z" fill="#F7941E"/>
</svg>
