<svg width="25" height="25" viewBox="0 0 25 25" fill="none" xmlns="http://www.w3.org/2000/svg">
<path fill-rule="evenodd" clip-rule="evenodd" d="M14.5377 9.96095L15.4219 9.07669L13.8573 7.51207L12.9731 8.39633L14.5377 9.96095ZM16.9241 12.3474L17.8084 11.4631L16.2438 9.89851L15.3595 10.7828L16.9241 12.3474ZM18.799 3.67669C18.9481 3.43278 18.9216 3.11156 18.732 2.92191L17.3412 1.53114C16.7722 0.962185 15.839 0.978739 15.2495 1.56824L11.5979 5.21989L13.0519 6.67388L12.1676 7.55814L10.7136 6.10415L1.82195 14.9958C1.23245 15.5853 1.21589 16.5185 1.78484 17.0875L8.23296 23.5356C8.51744 23.8201 8.88493 23.9583 9.27108 23.9515C9.65724 23.9446 10.0299 23.7932 10.3246 23.4985L19.1999 14.6232L17.7459 13.1692L18.6302 12.2849L20.0842 13.7389L23.7358 10.0873C24.3253 9.49778 24.3419 8.56458 23.7729 7.99563L22.3822 6.60486C22.1767 6.39941 21.8555 6.37293 21.6274 6.53783C20.7816 7.06754 19.7378 6.97347 19.0424 6.27808C18.3792 5.58213 18.2693 4.52249 18.799 3.67669Z" fill="#F7941E"/>
</svg>
